<svg xmlns="http://www.w3.org/2000/svg" xmlns:xlink="http://www.w3.org/1999/xlink" width="200" zoomAndPan="magnify" viewBox="0 0 810 809.999993" height="200" preserveAspectRatio="xMidYMid meet" version="1.0"><path fill="rgb(99.609375%, 100%, 99.609375%)" d="M 352.707031 322.457031 C 561.867188 394.324219 656.015625 308.074219 709.8125 275.136719 C 788.886719 226.65625 809.988281 238.949219 809.988281 238.949219 L 809.988281 201.835938 C 729.289062 212.738281 588.535156 394.324219 417.867188 314.800781 C 167.195312 190.933594 0.00390625 285.339844 0.00390625 285.339844 L 0.00390625 327.09375 C 0.00390625 327.09375 121.976562 224.800781 352.707031 322.457031 " fill-opacity="1" fill-rule="nonzero"/><path fill="rgb(99.609375%, 100%, 99.609375%)" d="M 256.703125 318.28125 C 452.648438 387.867188 542.621094 394.324219 660.1875 331.734375 C 763.609375 263.539062 809.988281 273.046875 809.988281 273.046875 L 809.988281 238.949219 C 809.988281 238.949219 788.886719 226.65625 709.8125 275.136719 C 656.015625 308.074219 561.867188 394.324219 352.707031 322.457031 C 122.210938 224.800781 0.238281 326.863281 0.238281 326.863281 L 0.238281 376.503906 C 0.00390625 376.503906 129.863281 273.046875 256.703125 318.28125 " fill-opacity="1" fill-rule="nonzero"/><path fill="rgb(99.609375%, 100%, 99.609375%)" d="M 809.988281 394.324219 L 809.988281 272.816406 C 809.988281 272.816406 763.609375 263.539062 660.1875 331.5 C 542.851562 394.324219 452.648438 387.636719 256.703125 318.046875 C 129.863281 273.046875 0.00390625 376.503906 0.00390625 376.503906 L 0.00390625 531.601562 L 809.988281 531.601562 L 809.988281 394.324219 " fill-opacity="1" fill-rule="nonzero"/></svg>