<svg width="335" height="335" xmlns="http://www.w3.org/2000/svg" viewBox="0 0 335 335"><g fill="none" fill-rule="evenodd"><path fill="#D8D8D8" fill-rule="nonzero" opacity=".09"  d="M0 0h335v335H0z"/><g ><g opacity=".383"><path d="M137.36 137.506c-.396 1.186-7.115 1.62-7.945 1.7-4.032.355-10.474.988-13.597-2.293-2.885-3.004-1.739-8.182 1.146-10.79 3.004-2.728 6.957-2.61 10.514-1.937 2.056.395 4.071.988 6.048 1.7.632.237 6.877 2.727 6.68 3.36-.04 0-2.846 8.26-2.846 8.26" stroke="#5E3883" stroke-width="1.35" fill="#7C4EC4"/><path d="M128.032 135.846c-2.332.237-6.048.672-7.826-1.225-1.621-1.74-.95-4.823.711-6.404 1.779-1.66 3.518-1.502 5.534-1.146 1.185.198 3.636.87 4.664 2.055 1.067 1.186 4.07 5.613-3.083 6.72z" fill="#F5EAD7"/><path d="M189.81 146.043c.04 1.107 6.285 3.4 7.075 3.716 3.755 1.462 9.724 3.794 13.637 1.937 3.636-1.74 4.07-6.483 2.134-9.526-2.055-3.202-5.89-4.19-9.447-4.664-2.055-.277-4.19-.316-6.245-.237-.672.04-7.351.356-7.351.948l.197 7.826" stroke="#5E3883" stroke-width="1.35" fill="#7C4EC4"/><path d="M199.217 147.269c2.174.87 5.574 2.292 7.826 1.186 2.095-1.028 2.332-3.834 1.186-5.653-1.186-1.897-2.885-2.292-4.94-2.569-1.186-.158-3.716-.276-5.06.435-1.344.711-5.533 3.676.988 6.6z" fill="#F5EAD7"/><path d="M150.838 122.723c.119-.079-4.15-6.838-1.976-12.095.988-2.173 4.347-3.992 4.07-6.007-.592-2.61-6.007-1.107-7.47-.514-8.142 3.28-12.964 16.284-7.39 27.865-.04.04 12.766-9.249 12.766-9.249" stroke="#7B7C7C" stroke-width="1.35" fill="#CDCFD0"/><path d="M148.032 121.419c-3.953-11.383 2.134-15.415 2.134-15.415-8.498 2.885-4.624 16.324-4.624 16.324l2.49-.909z" fill="#FFF"/><path d="M190.166 118.77c.158-2.41-1.937-5.572-.79-7.193 1.778-2.055 5.81 1.858 6.837 3.083 5.653 6.72 3.755 20.474-6.64 28.024l-6.917-14.19c-.04-.158 6.917-4.071 7.51-9.723z" stroke="#7B7C7C" stroke-width="1.35" fill="#CDCFD0"/><path d="M185.779 128.652c8.893-8.182 5.375-14.585 5.375-14.585 6.127 6.561-3.597 16.561-3.597 16.561l-1.778-1.976z" fill="#FFF"/><path d="M133.17 147.348s-2.846-29.842 23.953-27.51l21.739 4.15s18.181 4.901 12.727 31.502c0 0-27.115 15.652-58.38-8.419" stroke="#5E3883" stroke-width="1.35" fill="#7C4EC4"/><path d="M141.747 145.53s.04-15.178 8.221-13.834c11.028 1.778 4.664 19.842 4.664 19.842l-12.885-6.008z" fill="#FFF"/><path d="M149.81 150.708c-3.083.039-5.612-3.518-5.691-7.985-.08-4.466 2.371-8.102 5.454-8.181 3.083-.04 5.613 3.517 5.692 7.984.04 4.466-2.411 8.102-5.455 8.182z" fill="#231F20"/><path d="M151.589 140.154c0 .949-.751 1.7-1.7 1.7-.948 0-1.7-.751-1.7-1.7 0-.948.752-1.7 1.7-1.7.949 0 1.7.791 1.7 1.7M183.368 151.735s5.296-12.885-2.767-14.822c-11.74-2.767-12.214 17.273-12.214 17.273l14.98-2.45z" fill="#FFF"/><path d="M173.96 154.66c2.846 1.146 6.483-1.304 8.143-5.454 1.66-4.15.672-8.42-2.214-9.566-2.846-1.146-6.482 1.305-8.142 5.455-1.62 4.15-.632 8.419 2.213 9.565z" fill="#231F20"/><path d="M179.415 144.423c.04.949-.711 1.74-1.66 1.74a1.663 1.663 0 01-1.74-1.661 1.663 1.663 0 011.66-1.74c.95 0 1.74.712 1.74 1.66" fill="#FFF"/><path d="M154.237 191.972c48.893 6.285 48.656-34.861 34.388-39.96-8.143-2.925-15.85 3.794-27.55 1.462-11.462-2.292-15.77-10.553-26.284-8.577-17.234 3.28-17.234 42.332 19.446 47.075z" stroke="#938C81" stroke-width="1.35" fill="#F5EAD7"/><path d="M177.557 164.779c-2.371 1.146-4.624.632-5.02-1.147-.395-1.778 1.186-4.11 3.558-5.257 2.371-1.146 4.624-.632 5.02 1.147.395 1.778-1.186 4.11-3.558 5.257" fill="#7C4EC4"/><path d="M183.526 158.099s1.462 3.834-7.115 7.075c0 0-1.818-.474-3.518-2.372-.514-3.36 7.55-9.17 10.633-4.703z" fill="#7C4EC4" opacity=".4"/><path d="M149.652 156.439c1.265 2.292.91 4.585-.83 5.099-1.739.513-4.19-.91-5.454-3.202-1.265-2.293-.91-4.585.83-5.099 1.7-.514 4.15.91 5.454 3.202" fill="#7C4EC4"/><path d="M144 159.403c-2.134-2.213-4.664-5.02-2.925-7.273 0 0 4.783-4.229 9.17 6.285M187.557 174.66c-3.122 3.123-7.233 4.11-9.17 2.174-1.936-1.937-.948-6.047 2.174-9.17 3.123-3.122 7.233-4.11 9.17-2.174 1.937 1.937.988 6.048-2.174 9.17" fill="#7C4EC4" opacity=".4"/><path d="M165.067 124.818s-7.233.87-7.747 6.324c0 0-3.32-5.85 3.044-7.43 0 0-4.704-2.214-8.538.118 0 0 2.49-4.743 8.933-3.518-.79-3.162-4.862-4.466-4.862-4.466s4.625-1.107 8.814 3.28c0 0 .08-1.7 1.74-2.964 0 0 1.58 1.304 1.58 3.439 0 0 5.218-3.044 9.605 1.383 0 0-4.98-1.423-6.482.395 0 0 7.47.514 8.854 6.048 0 0-6.64-4.664-9.763-3.241 4.94 1.818 3.676 6.917 3.676 6.917s-2.055-5.494-8.854-6.285z" stroke="#5E3883" stroke-width="1.35" fill="#7C4EC4"/><path d="M142.972 173.672l.949-.593s3.518 7.945 13.004 9.289c10.158 1.423 17.51-4.388 17.51-4.388l.711.79s-7.668 6.443-18.3 4.744c-10.672-1.7-13.874-9.842-13.874-9.842zm33.162 6.126h-.079c-2.095-.474-2.766-2.41-2.806-2.49-.119-.276.04-.593.356-.672.276-.079.593.08.711.356.04.08.554 1.463 1.976 1.779.277.079.475.355.435.632-.079.237-.316.395-.593.395z" fill="#231F20" fill-rule="nonzero"/><path d="M132.024 167.269c2.569 3.597 6.838 5.138 9.051 3.557 2.214-1.58 2.214-6.403-.356-10-2.569-3.597-6.759-4.664-9.011-3.043-2.214 1.58-2.253 5.889.316 9.486" fill="#7C4EC4" opacity=".4"/><path d="M141.826 174.423h.08c2.134 0 3.161-1.74 3.2-1.818.159-.237.04-.593-.197-.751a.53.53 0 00-.75.197c-.04.08-.791 1.305-2.293 1.265-.317 0-.554.237-.514.554-.04.276.197.513.474.553" fill="#231F20"/></g><text opacity=".474" font-family="Nunito-Bold, Nunito" font-size="20" font-weight="bold" fill="#585558" transform="translate(109 103)"><tspan x="0" y="117">Add Photos</tspan></text></g></g></svg>