<svg xmlns="http://www.w3.org/2000/svg" width="37.5" viewBox="0 0 37.5 37.5" height="37.5" version="1.0"><defs><clipPath id="a"><path d="M 0 0 L 37.007812 0 L 37.007812 37.007812 L 0 37.007812 Z M 0 0"/></clipPath></defs><g clip-path="url(#a)"><path d="M 22.632812 25.054688 L 34.839844 37.25 C 35.15625 37.578125 35.679688 37.578125 36.003906 37.25 L 37.160156 36.09375 C 37.484375 35.769531 37.484375 35.246094 37.160156 34.9375 L 24.960938 22.722656 C 26.839844 20.339844 27.960938 17.335938 27.960938 14.070312 C 27.960938 6.351562 21.699219 0.0898438 13.980469 0.0898438 C 6.261719 0.0898438 0 6.351562 0 14.070312 C 0 21.789062 6.261719 28.050781 13.980469 28.050781 C 17.242188 28.050781 20.25 26.929688 22.632812 25.054688 Z M 13.980469 26.40625 C 20.789062 26.40625 26.316406 20.882812 26.316406 14.070312 C 26.316406 7.269531 20.789062 1.734375 13.980469 1.734375 C 7.171875 1.734375 1.644531 7.269531 1.644531 14.070312 C 1.644531 20.882812 7.171875 26.40625 13.980469 26.40625 Z M 13.980469 26.40625" fill-rule="evenodd"/></g></svg>